<mxfile host="app.diagrams.net" agent="Mozilla/5.0 (X11; Ubuntu; Linux x86_64; rv:132.0) Gecko/20100101 Firefox/132.0" version="24.8.6">
  <diagram name="PÃ¡gina-1" id="Y4VLaNQD1wAHForeRmXM">
    <mxGraphModel dx="819" dy="427" grid="1" gridSize="10" guides="1" tooltips="1" connect="1" arrows="1" fold="1" page="1" pageScale="1" pageWidth="827" pageHeight="1169" math="0" shadow="0">
      <root>
        <mxCell id="0" />
        <mxCell id="1" parent="0" />
        <mxCell id="yXqKtmUsToMkwSo831zl-10" style="edgeStyle=orthogonalEdgeStyle;rounded=0;orthogonalLoop=1;jettySize=auto;html=1;entryX=0;entryY=0.5;entryDx=0;entryDy=0;" edge="1" parent="1" source="yXqKtmUsToMkwSo831zl-1" target="yXqKtmUsToMkwSo831zl-9">
          <mxGeometry relative="1" as="geometry" />
        </mxCell>
        <mxCell id="yXqKtmUsToMkwSo831zl-1" value="&lt;div&gt;T&lt;/div&gt;" style="ellipse;whiteSpace=wrap;html=1;aspect=fixed;" vertex="1" parent="1">
          <mxGeometry x="120" y="280" width="60" height="60" as="geometry" />
        </mxCell>
        <mxCell id="yXqKtmUsToMkwSo831zl-4" value="&lt;div align=&quot;left&quot; style=&quot;font-size: 10px;&quot;&gt;&lt;font style=&quot;font-size: 10px;&quot;&gt;Q0 = 1 Q1 = 0&lt;/font&gt;&lt;/div&gt;&lt;div align=&quot;left&quot; style=&quot;font-size: 10px;&quot;&gt;&lt;font style=&quot;font-size: 10px;&quot;&gt;Q2 = 0&lt;/font&gt;&lt;/div&gt;&lt;div align=&quot;left&quot; style=&quot;font-size: 10px;&quot;&gt;&lt;font color=&quot;#7f00ff&quot; style=&quot;font-size: 10px;&quot;&gt;Porta = 1&lt;/font&gt;&lt;/div&gt;&lt;div align=&quot;left&quot; style=&quot;font-size: 10px;&quot;&gt;&lt;font color=&quot;#7f00ff&quot; style=&quot;font-size: 10px;&quot;&gt;A1 = 0 A2 = 0&lt;/font&gt;&lt;font color=&quot;#7f00ff&quot; style=&quot;font-size: 10px;&quot;&gt;&lt;br&gt;&lt;/font&gt; &lt;/div&gt;" style="text;html=1;align=left;verticalAlign=middle;whiteSpace=wrap;rounded=0;" vertex="1" parent="1">
          <mxGeometry x="10" y="305" width="150" height="30" as="geometry" />
        </mxCell>
        <mxCell id="yXqKtmUsToMkwSo831zl-7" value="" style="curved=1;endArrow=classic;html=1;rounded=0;exitX=0.782;exitY=0.91;exitDx=0;exitDy=0;exitPerimeter=0;" edge="1" parent="1" source="yXqKtmUsToMkwSo831zl-4">
          <mxGeometry width="50" height="50" relative="1" as="geometry">
            <mxPoint x="70" y="355" as="sourcePoint" />
            <mxPoint x="120" y="305" as="targetPoint" />
            <Array as="points">
              <mxPoint x="120" y="355" />
              <mxPoint x="70" y="305" />
            </Array>
          </mxGeometry>
        </mxCell>
        <mxCell id="yXqKtmUsToMkwSo831zl-21" style="edgeStyle=orthogonalEdgeStyle;rounded=0;orthogonalLoop=1;jettySize=auto;html=1;entryX=0.44;entryY=-0.033;entryDx=0;entryDy=0;entryPerimeter=0;exitX=1;exitY=1;exitDx=0;exitDy=0;" edge="1" parent="1" source="yXqKtmUsToMkwSo831zl-9" target="yXqKtmUsToMkwSo831zl-20">
          <mxGeometry relative="1" as="geometry">
            <mxPoint x="384" y="380" as="targetPoint" />
          </mxGeometry>
        </mxCell>
        <mxCell id="yXqKtmUsToMkwSo831zl-9" value="&lt;div&gt;1&lt;/div&gt;" style="ellipse;whiteSpace=wrap;html=1;aspect=fixed;" vertex="1" parent="1">
          <mxGeometry x="354" y="280" width="60" height="60" as="geometry" />
        </mxCell>
        <mxCell id="yXqKtmUsToMkwSo831zl-11" value="&lt;div align=&quot;left&quot; style=&quot;font-size: 10px;&quot;&gt;&lt;font style=&quot;font-size: 10px;&quot;&gt;Q0 = x Q1 = 1&lt;br&gt;&lt;/font&gt;&lt;/div&gt;&lt;div align=&quot;left&quot; style=&quot;font-size: 10px;&quot;&gt;&lt;font style=&quot;font-size: 10px;&quot;&gt;Q2 = x&lt;br&gt;&lt;/font&gt;&lt;/div&gt;&lt;div align=&quot;left&quot; style=&quot;font-size: 10px;&quot;&gt;&lt;font color=&quot;#7f00ff&quot; style=&quot;font-size: 10px;&quot;&gt;Porta = 0&lt;br&gt;&lt;/font&gt;&lt;/div&gt;&lt;div align=&quot;left&quot; style=&quot;font-size: 10px;&quot;&gt;&lt;font color=&quot;#7f00ff&quot; style=&quot;font-size: 10px;&quot;&gt;A1 = 0 A2 = 1&lt;/font&gt;&lt;font color=&quot;#7f00ff&quot; style=&quot;font-size: 10px;&quot;&gt;&lt;br&gt;&lt;/font&gt; &lt;/div&gt;" style="text;html=1;align=left;verticalAlign=middle;whiteSpace=wrap;rounded=0;" vertex="1" parent="1">
          <mxGeometry x="220" y="260" width="110" height="40" as="geometry" />
        </mxCell>
        <mxCell id="yXqKtmUsToMkwSo831zl-16" value="" style="endArrow=classic;html=1;rounded=0;exitX=0.079;exitY=0.833;exitDx=0;exitDy=0;exitPerimeter=0;" edge="1" parent="1" source="yXqKtmUsToMkwSo831zl-9">
          <mxGeometry width="50" height="50" relative="1" as="geometry">
            <mxPoint x="125" y="380" as="sourcePoint" />
            <mxPoint x="175" y="330" as="targetPoint" />
          </mxGeometry>
        </mxCell>
        <mxCell id="yXqKtmUsToMkwSo831zl-17" value="&lt;div align=&quot;left&quot; style=&quot;font-size: 10px;&quot;&gt;&lt;font style=&quot;font-size: 10px;&quot;&gt;Q0 = 1 Q1 = 0&lt;br&gt;&lt;/font&gt;&lt;/div&gt;&lt;div align=&quot;left&quot; style=&quot;font-size: 10px;&quot;&gt;&lt;font style=&quot;font-size: 10px;&quot;&gt;Q2 = 0&lt;br&gt;&lt;/font&gt;&lt;/div&gt;&lt;div align=&quot;left&quot; style=&quot;font-size: 10px;&quot;&gt;&lt;font color=&quot;#7f00ff&quot; style=&quot;font-size: 10px;&quot;&gt;Porta = 0&lt;br&gt;&lt;/font&gt;&lt;/div&gt;&lt;div align=&quot;left&quot; style=&quot;font-size: 10px;&quot;&gt;&lt;font color=&quot;#7f00ff&quot; style=&quot;font-size: 10px;&quot;&gt;A1 = 0 A2 = 0&lt;/font&gt;&lt;font color=&quot;#7f00ff&quot; style=&quot;font-size: 10px;&quot;&gt;&lt;br&gt;&lt;/font&gt; &lt;/div&gt;" style="text;html=1;align=left;verticalAlign=middle;whiteSpace=wrap;rounded=0;" vertex="1" parent="1">
          <mxGeometry x="220" y="340" width="110" height="40" as="geometry" />
        </mxCell>
        <mxCell id="yXqKtmUsToMkwSo831zl-18" value="" style="curved=1;endArrow=classic;html=1;rounded=0;entryX=0.574;entryY=0.033;entryDx=0;entryDy=0;entryPerimeter=0;" edge="1" parent="1" target="yXqKtmUsToMkwSo831zl-9">
          <mxGeometry width="50" height="50" relative="1" as="geometry">
            <mxPoint x="414" y="305" as="sourcePoint" />
            <mxPoint x="464" y="255" as="targetPoint" />
            <Array as="points">
              <mxPoint x="464" y="305" />
              <mxPoint x="414" y="255" />
            </Array>
          </mxGeometry>
        </mxCell>
        <mxCell id="yXqKtmUsToMkwSo831zl-19" value="&lt;div align=&quot;left&quot; style=&quot;font-size: 10px;&quot;&gt;&lt;font style=&quot;font-size: 10px;&quot;&gt;Q0 = 0 Q1 = 1&lt;br&gt;&lt;/font&gt;&lt;/div&gt;&lt;div align=&quot;left&quot; style=&quot;font-size: 10px;&quot;&gt;&lt;font style=&quot;font-size: 10px;&quot;&gt;Q2 = 0&lt;br&gt;&lt;/font&gt;&lt;/div&gt;&lt;div align=&quot;left&quot; style=&quot;font-size: 10px;&quot;&gt;&lt;font color=&quot;#7f00ff&quot; style=&quot;font-size: 10px;&quot;&gt;Porta = 1&lt;br&gt;&lt;/font&gt;&lt;/div&gt;&lt;div align=&quot;left&quot; style=&quot;font-size: 10px;&quot;&gt;&lt;font color=&quot;#7f00ff&quot; style=&quot;font-size: 10px;&quot;&gt;A1 = 0 A2 = 1&lt;/font&gt;&lt;font color=&quot;#7f00ff&quot; style=&quot;font-size: 10px;&quot;&gt;&lt;br&gt;&lt;/font&gt; &lt;/div&gt;" style="text;html=1;align=left;verticalAlign=middle;whiteSpace=wrap;rounded=0;" vertex="1" parent="1">
          <mxGeometry x="440" y="240" width="110" height="40" as="geometry" />
        </mxCell>
        <mxCell id="yXqKtmUsToMkwSo831zl-20" value="2" style="ellipse;whiteSpace=wrap;html=1;aspect=fixed;" vertex="1" parent="1">
          <mxGeometry x="470" y="410" width="60" height="60" as="geometry" />
        </mxCell>
        <mxCell id="yXqKtmUsToMkwSo831zl-22" value="&lt;div align=&quot;left&quot; style=&quot;font-size: 10px;&quot;&gt;&lt;font style=&quot;font-size: 10px;&quot;&gt;Q0 = x Q1 = x&lt;br&gt;&lt;/font&gt;&lt;/div&gt;&lt;div align=&quot;left&quot; style=&quot;font-size: 10px;&quot;&gt;&lt;font style=&quot;font-size: 10px;&quot;&gt;Q2 = 1&lt;br&gt;&lt;/font&gt;&lt;/div&gt;&lt;div align=&quot;left&quot; style=&quot;font-size: 10px;&quot;&gt;&lt;font color=&quot;#7f00ff&quot; style=&quot;font-size: 10px;&quot;&gt;Porta = 0&lt;br&gt;&lt;/font&gt;&lt;/div&gt;&lt;div align=&quot;left&quot; style=&quot;font-size: 10px;&quot;&gt;&lt;font color=&quot;#7f00ff&quot; style=&quot;font-size: 10px;&quot;&gt;A1 = 1 A2 = 0&lt;/font&gt;&lt;font color=&quot;#7f00ff&quot; style=&quot;font-size: 10px;&quot;&gt;&lt;br&gt;&lt;/font&gt; &lt;/div&gt;" style="text;html=1;align=left;verticalAlign=middle;whiteSpace=wrap;rounded=0;" vertex="1" parent="1">
          <mxGeometry x="414" y="350" width="110" height="40" as="geometry" />
        </mxCell>
        <mxCell id="yXqKtmUsToMkwSo831zl-26" value="&lt;div align=&quot;left&quot; style=&quot;font-size: 10px;&quot;&gt;&lt;font style=&quot;font-size: 10px;&quot;&gt;Q0 = 0 Q1 = 0&lt;br&gt;&lt;/font&gt;&lt;/div&gt;&lt;div align=&quot;left&quot; style=&quot;font-size: 10px;&quot;&gt;&lt;font style=&quot;font-size: 10px;&quot;&gt;Q2 = 1&lt;br&gt;&lt;/font&gt;&lt;/div&gt;&lt;div align=&quot;left&quot; style=&quot;font-size: 10px;&quot;&gt;&lt;font color=&quot;#7f00ff&quot; style=&quot;font-size: 10px;&quot;&gt;Porta = 1&lt;br&gt;&lt;/font&gt;&lt;/div&gt;&lt;div align=&quot;left&quot; style=&quot;font-size: 10px;&quot;&gt;&lt;font color=&quot;#7f00ff&quot; style=&quot;font-size: 10px;&quot;&gt;A1 = 1 A2 = 0&lt;/font&gt;&lt;font color=&quot;#7f00ff&quot; style=&quot;font-size: 10px;&quot;&gt;&lt;br&gt;&lt;/font&gt; &lt;/div&gt;" style="text;html=1;align=left;verticalAlign=middle;whiteSpace=wrap;rounded=0;" vertex="1" parent="1">
          <mxGeometry x="370" y="430" width="110" height="40" as="geometry" />
        </mxCell>
        <mxCell id="yXqKtmUsToMkwSo831zl-27" value="" style="curved=1;endArrow=classic;html=1;rounded=0;" edge="1" parent="1" source="yXqKtmUsToMkwSo831zl-20">
          <mxGeometry width="50" height="50" relative="1" as="geometry">
            <mxPoint x="420" y="490" as="sourcePoint" />
            <mxPoint x="470" y="440" as="targetPoint" />
            <Array as="points">
              <mxPoint x="470" y="490" />
              <mxPoint x="420" y="440" />
            </Array>
          </mxGeometry>
        </mxCell>
        <mxCell id="yXqKtmUsToMkwSo831zl-29" value="" style="endArrow=classic;html=1;rounded=0;entryX=0.933;entryY=0.667;entryDx=0;entryDy=0;entryPerimeter=0;" edge="1" parent="1" target="yXqKtmUsToMkwSo831zl-9">
          <mxGeometry width="50" height="50" relative="1" as="geometry">
            <mxPoint x="530" y="440" as="sourcePoint" />
            <mxPoint x="600" y="320" as="targetPoint" />
            <Array as="points">
              <mxPoint x="600" y="440" />
              <mxPoint x="600" y="320" />
            </Array>
          </mxGeometry>
        </mxCell>
        <mxCell id="yXqKtmUsToMkwSo831zl-30" value="&lt;div align=&quot;left&quot; style=&quot;font-size: 10px;&quot;&gt;&lt;font style=&quot;font-size: 10px;&quot;&gt;Q0 = x Q1 = 1&lt;br&gt;&lt;/font&gt;&lt;/div&gt;&lt;div align=&quot;left&quot; style=&quot;font-size: 10px;&quot;&gt;&lt;font style=&quot;font-size: 10px;&quot;&gt;Q2 = 0&lt;br&gt;&lt;/font&gt;&lt;/div&gt;&lt;div align=&quot;left&quot; style=&quot;font-size: 10px;&quot;&gt;&lt;font color=&quot;#7f00ff&quot; style=&quot;font-size: 10px;&quot;&gt;Porta = 0&lt;br&gt;&lt;/font&gt;&lt;/div&gt;&lt;div align=&quot;left&quot; style=&quot;font-size: 10px;&quot;&gt;&lt;font color=&quot;#7f00ff&quot; style=&quot;font-size: 10px;&quot;&gt;A1 = 0 A2 = 1&lt;/font&gt;&lt;font color=&quot;#7f00ff&quot; style=&quot;font-size: 10px;&quot;&gt;&lt;br&gt;&lt;/font&gt; &lt;/div&gt;" style="text;html=1;align=left;verticalAlign=middle;whiteSpace=wrap;rounded=0;" vertex="1" parent="1">
          <mxGeometry x="610" y="340" width="110" height="40" as="geometry" />
        </mxCell>
      </root>
    </mxGraphModel>
  </diagram>
</mxfile>
